<?xml version="1.0" standalone="no"?>
<!DOCTYPE svg PUBLIC "-//W3C//DTD SVG 20010904//EN"
 "http://www.w3.org/TR/2001/REC-SVG-20010904/DTD/svg10.dtd">
<svg version="1.0" xmlns="http://www.w3.org/2000/svg"
 width="400.000000pt" height="400.000000pt" viewBox="0 0 400.000000 400.000000"
 preserveAspectRatio="xMidYMid meet">

<g transform="translate(0.000000,400.000000) scale(0.100000,-0.100000)"
fill="#000000" stroke="none">
<path d="M1934 3823 c-3 -10 -10 -26 -16 -37 -5 -10 -12 -44 -14 -75 -3 -31
-12 -66 -20 -78 -9 -14 -14 -50 -14 -100 -1 -67 -4 -82 -25 -107 -23 -29 -25
-30 -142 -33 -71 -3 -133 -10 -156 -18 -20 -8 -68 -15 -105 -15 -39 -1 -77 -7
-92 -15 -14 -8 -35 -14 -47 -15 -12 0 -49 -16 -82 -35 -32 -19 -67 -35 -76
-35 -16 0 -85 -29 -184 -78 -60 -30 -200 -162 -247 -232 -46 -70 -122 -231
-129 -275 -4 -22 -13 -59 -21 -83 -8 -23 -14 -58 -14 -76 0 -19 -7 -39 -15
-46 -13 -10 -15 -53 -15 -265 0 -250 0 -253 -26 -311 -14 -32 -34 -70 -43 -84
-25 -35 -131 -243 -131 -257 0 -6 -6 -24 -14 -40 -41 -79 -46 -102 -46 -206 0
-102 1 -106 26 -126 18 -14 30 -18 42 -11 9 5 42 20 74 34 61 27 88 56 88 96
0 30 17 50 41 50 21 0 69 62 69 88 0 40 29 91 57 98 22 6 31 1 55 -27 15 -19
31 -45 34 -59 19 -71 129 -252 188 -309 40 -38 44 -60 21 -114 -8 -20 -15 -50
-15 -67 0 -17 -7 -45 -17 -63 -13 -26 -16 -65 -17 -213 -1 -158 -3 -184 -18
-201 -10 -11 -18 -26 -18 -34 0 -9 -13 -28 -30 -44 -35 -33 -42 -85 -12 -85 9
0 26 -7 36 -15 16 -12 70 -15 304 -15 l285 0 48 48 c47 47 49 51 46 98 -2 27
-9 59 -15 71 -15 26 -16 89 -2 98 5 3 87 6 180 6 137 0 175 -4 193 -16 13 -9
43 -15 78 -15 36 0 61 -5 68 -14 16 -19 72 -24 161 -15 114 13 135 -2 100 -69
-11 -20 -20 -56 -20 -78 l0 -42 368 -4 367 -4 21 22 c21 22 23 67 3 80 -5 3
-9 13 -9 22 0 9 -19 46 -42 82 -23 36 -52 85 -66 110 -13 25 -32 54 -41 65
-30 33 -81 178 -81 226 0 37 5 50 30 74 17 16 30 36 30 45 0 22 42 70 60 70
39 -1 95 -29 102 -52 9 -26 26 -37 89 -57 67 -21 105 -14 229 40 109 49 113
52 157 140 34 68 42 95 43 140 0 34 -6 63 -15 75 -8 10 -15 34 -15 53 0 18 -5
52 -12 74 -11 36 -10 41 10 58 12 9 27 19 34 21 14 5 -4 40 -45 87 -16 19 -36
49 -43 68 -8 18 -18 33 -23 33 -5 0 -22 11 -38 24 -15 13 -46 26 -68 30 -29 6
-52 21 -87 57 -58 60 -62 88 -15 120 58 40 57 36 56 263 0 116 -5 236 -9 266
-5 30 -12 80 -16 110 -8 73 -92 247 -157 325 -70 85 -158 157 -262 214 -99 55
-164 81 -203 81 -14 0 -34 8 -45 18 -15 14 -42 18 -138 21 -85 2 -121 7 -130
17 -9 11 -44 14 -150 14 -127 0 -142 2 -174 23 -33 21 -35 24 -35 84 0 34 4
64 9 67 13 8 51 89 51 108 0 9 17 30 37 47 31 25 36 34 27 48 -11 17 -13 19
-82 52 -52 26 -71 26 -78 4z m-4 -418 c-7 -8 -16 -15 -21 -15 -5 0 -9 7 -9 15
0 9 9 15 21 15 18 0 19 -2 9 -15z m-492 -125 c-14 -23 -49 -23 -56 -1 -3 9 1
11 14 7 11 -3 26 -1 34 4 21 14 22 13 8 -10z m167 -15 c6 -7 22 -12 35 -12 33
1 90 -30 90 -48 0 -18 -1 -18 -37 -4 -15 6 -46 14 -68 16 -22 2 -44 9 -49 14
-6 5 -23 9 -38 9 -34 0 -36 13 -6 34 24 17 56 13 73 -9z m-137 -3 c2 -7 -3
-12 -12 -12 -9 0 -16 7 -16 16 0 17 22 14 28 -4z m552 -16 c0 -8 -7 -16 -15
-20 -15 -5 -21 14 -8 27 11 12 23 8 23 -7z m-417 -760 c4 -10 1 -13 -8 -9 -8
3 -12 9 -9 14 7 12 11 11 17 -5z m94 -21 c-11 -7 -26 -11 -34 -8 -16 6 -14 -9
9 -70 8 -22 13 -25 24 -16 20 17 19 -40 -2 -69 -10 -14 -13 -30 -8 -40 4 -9 8
-20 8 -23 1 -3 9 -13 19 -23 9 -10 17 -26 17 -37 0 -14 7 -19 29 -19 24 0 31
-5 36 -28 5 -26 9 -28 63 -30 31 -1 59 -7 60 -12 5 -15 29 -12 36 5 11 30 26
14 26 -30 0 -39 3 -45 21 -45 12 0 23 8 26 20 7 26 70 28 89 3 12 -17 13 -17
27 1 13 18 14 18 35 -4 24 -25 51 -19 30 8 -11 14 -10 15 5 9 10 -4 22 -7 26
-7 4 0 13 -16 20 -35 9 -27 18 -35 37 -35 15 0 24 -6 24 -15 0 -8 5 -15 10
-15 6 0 10 5 10 10 0 15 17 12 24 -5 3 -8 3 -28 0 -44 -6 -27 -11 -30 -62 -39
-37 -6 -66 -6 -85 0 -39 14 -190 5 -195 -12 -3 -7 -14 -21 -26 -32 -71 -66
-96 -95 -96 -113 0 -12 -5 -26 -11 -32 -8 -8 -7 -16 2 -30 7 -11 10 -27 6 -35
-6 -18 -54 -29 -86 -21 -14 3 -21 1 -21 -8 0 -25 14 -36 52 -42 31 -5 40 -2
48 14 14 25 25 24 38 -3 10 -22 11 -22 17 10 9 37 11 37 102 16 68 -16 147
-12 158 7 8 12 55 12 55 -1 0 -21 24 -8 68 39 26 27 54 51 62 53 27 6 42 35
30 59 -16 28 0 45 28 30 28 -15 32 -14 32 7 1 28 37 -26 49 -73 10 -36 9 -42
-13 -60 -19 -16 -22 -27 -19 -57 5 -33 3 -38 -15 -38 -22 0 -73 -20 -82 -31
-3 -4 -14 -8 -25 -10 -11 -3 -20 -11 -20 -19 0 -18 -64 -33 -81 -19 -7 6 -16
-4 -27 -31 -8 -22 -24 -43 -34 -47 -29 -10 -113 -96 -113 -115 0 -10 -4 -18
-10 -18 -5 0 -10 5 -10 12 0 9 -3 9 -12 0 -7 -7 -22 -12 -35 -12 -12 0 -46
-18 -75 -40 -51 -39 -55 -40 -108 -34 -74 8 -90 13 -90 29 0 8 -9 23 -21 34
-17 15 -19 23 -10 39 8 15 7 23 -4 32 -17 14 -20 40 -5 40 6 0 10 6 10 14 0
19 -39 25 -102 15 -42 -7 -54 -6 -61 6 -6 12 -11 12 -27 2 -16 -9 -24 -9 -40
0 -16 11 -21 9 -34 -9 -14 -19 -18 -20 -39 -9 -13 7 -39 11 -58 9 -31 -3 -34
-6 -35 -34 -1 -18 -11 -46 -24 -64 -19 -26 -27 -31 -49 -25 -14 3 -40 6 -57 5
-20 0 -38 8 -54 25 -14 15 -34 25 -52 25 -18 0 -31 6 -35 18 -3 9 -15 30 -26
45 -10 15 -17 36 -14 47 3 12 -7 32 -29 56 -41 44 -43 66 -8 93 22 18 51 24
160 35 39 4 59 -10 68 -49 7 -25 9 -28 19 -15 13 17 54 17 86 1 32 -17 41 -13
41 19 0 23 -4 30 -20 30 -13 0 -20 7 -20 20 0 38 -25 100 -40 100 -8 0 -28 13
-45 28 -25 24 -32 27 -41 14 -15 -20 -54 -6 -54 20 0 11 8 22 20 25 16 4 18 9
9 24 -19 36 -98 57 -231 61 -51 2 -58 5 -63 27 -7 27 0 37 30 43 12 2 19 10
17 21 -4 25 25 21 33 -4 5 -16 10 -18 18 -10 9 9 8 14 -3 21 -13 8 -13 10 1
10 9 0 20 8 24 18 6 16 7 16 21 -2 14 -20 14 -20 29 0 8 10 12 25 10 32 -2 6
0 12 5 12 5 0 12 -9 15 -20 7 -21 30 -27 40 -10 4 6 21 8 41 4 33 -6 34 -5 32
25 -2 16 0 31 5 31 34 1 70 -3 60 -7 -21 -8 -15 -23 8 -23 14 0 19 5 16 14 -3
8 1 17 9 20 8 3 14 1 14 -4 0 -6 14 -10 30 -10 26 0 30 4 30 28 0 15 -5 33
-12 40 -9 9 0 12 43 14 29 1 65 2 79 2 14 1 43 15 64 32 40 34 40 34 45 202 1
29 4 32 21 27 17 -5 21 -1 26 24 6 29 10 31 48 31 37 -1 39 -2 23 -15z m403
-241 c0 -8 -4 -12 -10 -9 -5 3 -10 10 -10 16 0 5 5 9 10 9 6 0 10 -7 10 -16z
m-954 -71 c-7 -7 -26 7 -26 19 0 6 6 6 15 -2 9 -7 13 -15 11 -17z m964 -2 c0
-6 -4 -13 -10 -16 -5 -3 -10 1 -10 9 0 9 5 16 10 16 6 0 10 -4 10 -9z m-890
-22 c0 -11 -27 -12 -34 0 -3 4 -3 11 0 14 8 8 34 -3 34 -14z m890 -35 c0 -8
-6 -14 -14 -14 -9 0 -12 7 -9 20 6 22 23 18 23 -6z m-1219 -84 c6 0 7 -5 3
-11 -10 -17 -24 11 -22 46 l1 30 4 -32 c2 -18 9 -33 14 -33z m1409 40 c0 -5
-4 -10 -10 -10 -5 0 -10 5 -10 10 0 6 5 10 10 10 6 0 10 -4 10 -10z m968 -202
c15 0 34 -1 42 -2 8 -1 17 -12 18 -25 2 -13 12 -25 22 -28 11 -3 21 -18 24
-37 5 -25 13 -34 39 -41 27 -9 32 -15 32 -40 -1 -25 -5 -31 -28 -33 -21 -3
-27 -9 -27 -26 0 -13 7 -29 15 -36 11 -9 15 -32 15 -80 0 -49 4 -71 15 -80 9
-7 14 -22 13 -34 -2 -13 2 -20 10 -18 8 1 12 -1 10 -5 -22 -46 -34 -61 -64
-75 -19 -10 -54 -18 -77 -18 -23 0 -48 -4 -55 -9 -7 -4 -33 -5 -58 -1 -38 6
-46 4 -55 -12 -5 -10 -18 -18 -29 -18 -14 0 -18 6 -17 28 2 21 -3 30 -26 39
-16 7 -26 16 -23 21 3 5 -2 28 -10 52 -13 36 -13 48 -3 68 11 19 11 27 0 44
-7 11 -15 36 -17 56 -3 19 -14 48 -25 64 -17 24 -20 36 -13 60 6 19 17 32 28
34 24 3 30 10 50 63 22 56 33 66 76 66 33 0 35 2 38 37 l3 38 25 -25 c14 -14
37 -26 52 -27z m-841 26 c-3 -3 -12 -4 -19 -1 -8 3 -5 6 6 6 11 1 17 -2 13 -5z
m-1883 -74 c34 -12 34 -40 1 -40 -14 0 -25 4 -25 9 0 5 -3 16 -6 25 -7 19 -4
19 30 6z m-39 -66 c8 -20 15 -47 15 -59 0 -26 24 -50 40 -40 6 4 10 -4 10 -18
0 -24 -58 -87 -81 -87 -5 0 -9 17 -9 38 1 39 -16 169 -19 141 0 -9 -8 -16 -16
-16 -20 0 -19 14 5 39 10 12 17 25 14 30 -3 4 2 8 10 8 9 0 23 -16 31 -36z
m-65 -130 c0 -40 -5 -63 -19 -80 -16 -20 -20 -21 -25 -8 -3 8 -1 24 5 35 7 15
6 23 -4 34 -8 8 -18 11 -22 7 -4 -4 1 10 12 30 10 22 25 38 36 38 14 0 17 -9
17 -56z m2165 -513 c59 -26 95 -73 95 -122 0 -36 2 -39 24 -33 28 7 36 -13 36
-96 0 -34 6 -64 16 -78 11 -16 14 -34 9 -61 -4 -24 -2 -42 4 -46 6 -3 11 -17
11 -30 0 -13 6 -28 14 -32 8 -5 16 -30 18 -63 2 -30 8 -64 13 -74 6 -13 5 -17
-3 -12 -7 4 -8 -2 -2 -24 5 -17 5 -32 0 -35 -5 -3 -61 -6 -124 -7 -82 0 -120
3 -132 13 -13 10 -17 10 -23 0 -5 -7 -17 -11 -27 -9 -15 2 -20 14 -22 56 -2
39 -7 52 -16 49 -17 -7 -56 144 -42 165 5 8 6 27 2 43 -6 23 -11 27 -35 23
-30 -4 -32 9 -8 40 5 7 6 16 2 20 -4 4 -10 2 -12 -5 -6 -17 -53 31 -53 55 0
11 -4 24 -10 27 -5 3 -10 27 -10 52 0 50 20 83 51 83 10 0 26 11 37 25 24 31
111 93 132 94 8 0 33 -8 55 -18z m215 -430 c0 -11 5 -21 12 -23 7 -3 8 -10 4
-17 -10 -16 -22 -4 -30 32 -4 16 -2 27 4 27 5 0 10 -9 10 -19z"/>
<path d="M1594 2318 c-4 -7 -3 -8 4 -4 7 4 12 2 12 -3 0 -6 5 -11 10 -11 15 0
12 17 -5 23 -8 4 -17 1 -21 -5z"/>
<path d="M2446 1651 c-4 -7 -5 -15 -2 -18 9 -9 19 4 14 18 -4 11 -6 11 -12 0z"/>
<path d="M1250 1526 c0 -9 5 -16 10 -16 6 0 10 4 10 9 0 6 -4 13 -10 16 -5 3
-10 -1 -10 -9z"/>
<path d="M1220 1504 c0 -8 5 -12 10 -9 6 3 10 10 10 16 0 5 -4 9 -10 9 -5 0
-10 -7 -10 -16z"/>
<path d="M1220 1320 c0 -5 5 -10 10 -10 6 0 10 5 10 10 0 6 -4 10 -10 10 -5 0
-10 -4 -10 -10z"/>
<path d="M3405 1370 c-3 -5 -1 -10 4 -10 6 0 11 5 11 10 0 6 -2 10 -4 10 -3 0
-8 -4 -11 -10z"/>
<path d="M2705 870 c3 -5 8 -10 11 -10 2 0 4 5 4 10 0 6 -5 10 -11 10 -5 0 -7
-4 -4 -10z"/>
</g>
</svg>
